<?xml version="1.0" standalone="no"?>
<!DOCTYPE svg PUBLIC "-//W3C//DTD SVG 20010904//EN"
 "http://www.w3.org/TR/2001/REC-SVG-20010904/DTD/svg10.dtd">
<svg version="1.0" xmlns="http://www.w3.org/2000/svg"
 width="381.000000pt" height="381.000000pt" viewBox="0 0 381.000000 381.000000"
 preserveAspectRatio="xMidYMid meet">
<metadata>
Created by potrace 1.11, written by Peter Selinger 2001-2013
</metadata>
<g transform="translate(0.000000,381.000000) scale(0.100000,-0.100000)"
fill="#000000" stroke="none">
<path d="M1900 3763 c-25 -77 -102 -208 -200 -336 -55 -73 -148 -196 -207
-273 -220 -289 -293 -449 -293 -647 0 -232 149 -436 419 -570 82 -41 131 -57
131 -42 0 2 -19 41 -41 85 -78 153 -103 308 -75 468 34 197 107 309 384 594
l115 117 -7 51 c-8 62 -33 144 -98 325 -52 144 -103 265 -112 265 -2 0 -10
-17 -16 -37z"/>
<path d="M2417 3408 c-51 -101 -167 -240 -370 -447 -172 -177 -246 -272 -292
-376 -35 -79 -59 -223 -51 -310 11 -119 96 -365 127 -365 4 0 10 33 13 73 35
364 199 559 676 804 l75 38 3 60 c6 113 -39 353 -94 496 -41 109 -43 110 -87
27z"/>
<path d="M1110 3322 c0 -59 -42 -163 -159 -398 -137 -273 -157 -340 -149 -493
13 -249 218 -466 513 -541 82 -21 255 -28 255 -11 0 6 -30 26 -67 45 -235 124
-373 345 -373 595 0 132 19 201 102 383 l49 106 -44 114 c-71 186 -127 274
-127 200z"/>
<path d="M2969 3093 c-25 -61 -80 -136 -139 -191 -46 -44 -203 -147 -310 -204
-215 -114 -366 -220 -450 -316 -89 -102 -166 -323 -158 -456 l3 -51 60 3 c87
4 237 31 309 54 176 57 355 200 473 377 46 69 125 219 153 290 60 153 126 551
92 551 -5 0 -20 -26 -33 -57z"/>
<path d="M1390 1675 l0 -115 390 0 390 0 0 115 0 115 -390 0 -390 0 0 -115z"/>
<path d="M1594 1403 c4 -43 33 -357 66 -698 32 -341 60 -636 62 -655 3 -34 4
-35 48 -35 l45 0 17 155 c9 85 31 288 48 450 17 162 45 414 61 560 16 146 29
273 29 283 0 16 -16 17 -191 17 l-192 0 7 -77z"/>
</g>
</svg>
